<?xml version="1.0" encoding="utf-8"?>
<!-- Generator: Adobe Illustrator 25.3.0, SVG Export Plug-In . SVG Version: 6.00 Build 0)  -->
<svg version="1.1" id="bg" xmlns="http://www.w3.org/2000/svg" xmlns:xlink="http://www.w3.org/1999/xlink" x="0px" y="0px"
	 viewBox="0 0 288 448" style="enable-background:new 0 0 288 448;" xml:space="preserve">
<style type="text/css">
	.st0{fill:#891E70;}
	.st1{fill:none;stroke:#FCB122;stroke-width:57.6;stroke-miterlimit:10;}
	.st2{fill:none;stroke:#F78524;stroke-width:57.6;stroke-miterlimit:10;}
	.st3{fill:none;stroke:#DF326A;stroke-width:57.6;stroke-miterlimit:10;}
	.st4{fill:none;stroke:#891E70;stroke-width:57.6;stroke-miterlimit:10;}
	.st5{fill:#FECDA2;}
</style>
<g id="yellow">
	<path class="st0" d="M70.6,0c0,40.14-26,77.41-26,112.01c0,40.97,26,78.19,26,112c0,42.48-26,79.58-26,112c0,46.21,26,82.89,26,112
		"/>
	<path class="st1" d="M70.6,0c0,40.14-26,77.41-26,112.01c0,40.97,26,78.19,26,112c0,42.48-26,79.58-26,112c0,46.21,26,82.89,26,112
		"/>
</g>
<g id="orange">
	<path class="st0" d="M128.2,0c0,40.14-26,77.41-26,112.01c0,40.97,26,78.19,26,112c0,42.48-26,79.58-26,112
		c0,46.21,26,82.89,26,112"/>
	<path class="st2" d="M128.2,0c0,40.14-26,77.41-26,112.01c0,40.97,26,78.19,26,112c0,42.48-26,79.58-26,112
		c0,46.21,26,82.89,26,112"/>
</g>
<g id="pink">
	<path class="st0" d="M185.8,0c0,40.14-26,77.41-26,112.01c0,40.97,26,78.19,26,112c0,42.48-26,79.58-26,112
		c0,46.21,26,82.89,26,112"/>
	<path class="st3" d="M185.8,0c0,40.14-26,77.41-26,112.01c0,40.97,26,78.19,26,112c0,42.48-26,79.58-26,112
		c0,46.21,26,82.89,26,112"/>
</g>
<g id="aubergine">
	<path class="st0" d="M243.4,0c0,40.14-26,77.41-26,112.01c0,40.97,26,78.19,26,112c0,42.48-26,79.58-26,112
		c0,46.21,26,82.89,26,112"/>
	<path class="st4" d="M243.4,0c0,40.14-26,77.41-26,112.01c0,40.97,26,78.19,26,112c0,42.48-26,79.58-26,112
		c0,46.21,26,82.89,26,112"/>
</g>
<g id="skin2">
	<g>
		<path class="st5" d="M288,448l-15.8,0.01c0-7.93-4.43-20.42-9.11-33.64c-7.52-21.23-16.89-47.64-16.89-78.36
			c0-20.01,6.76-39.32,13.31-57.99c6.24-17.81,12.69-36.23,12.69-54.01c0-11.21-5.08-25.75-10.46-41.15
			c-7.29-20.86-15.54-44.5-15.54-70.85c0-21.53,7.06-41.76,13.88-61.33C266.31,32.81,272.2,15.94,272.2,0L288,0"/>
	</g>
</g>
<g id="skin1">
	<g>
		<path class="st5" d="M0,0l41.8,0c0,25.7-8.15,49.05-15.33,69.65c-5.49,15.73-10.67,30.58-10.67,42.36
			c0,16.58,5.99,33.72,12.32,51.86c6.72,19.25,13.68,39.16,13.68,60.14c0,27.57-8.46,51.73-15.93,73.05
			c-5.18,14.78-10.07,28.73-10.07,38.95c0,20.81,6.9,40.28,13.58,59.12c6.39,18.02,12.42,35.05,12.42,52.88L0,448"/>
	</g>
</g>
</svg>
